<svg xmlns="http://www.w3.org/2000/svg" xmlns:xlink="http://www.w3.org/1999/xlink" width="400" zoomAndPan="magnify" viewBox="0 0 300 149.999998" height="200" preserveAspectRatio="xMidYMid meet" version="1.0"><defs><g/><clipPath id="8fcebc9d30"><path d="M 11.25 15 L 31.5 15 L 31.5 36 L 11.25 36 Z M 11.25 15 " clip-rule="nonzero"/></clipPath><clipPath id="c87c3a48d5"><path d="M 15 42.246094 L 278.871094 42.246094 L 278.871094 130.691406 L 15 130.691406 Z M 15 42.246094 " clip-rule="nonzero"/></clipPath><clipPath id="8a99e6fc96"><path d="M 25.070312 42.246094 L 268.800781 42.246094 C 271.472656 42.246094 274.035156 43.304688 275.921875 45.195312 C 277.8125 47.082031 278.871094 49.644531 278.871094 52.316406 L 278.871094 120.621094 C 278.871094 123.289062 277.8125 125.851562 275.921875 127.742188 C 274.035156 129.628906 271.472656 130.691406 268.800781 130.691406 L 25.070312 130.691406 C 22.398438 130.691406 19.839844 129.628906 17.949219 127.742188 C 16.0625 125.851562 15 123.289062 15 120.621094 L 15 52.316406 C 15 49.644531 16.0625 47.082031 17.949219 45.195312 C 19.839844 43.304688 22.398438 42.246094 25.070312 42.246094 Z M 25.070312 42.246094 " clip-rule="nonzero"/></clipPath></defs><g clip-path="url(#8fcebc9d30)"><path fill="#9ec8d5" d="M 11.25 15.996094 C 11.25 15.445312 11.695312 15 12.246094 15 L 30.183594 15 C 30.734375 15 31.179688 15.445312 31.179688 15.996094 L 31.179688 18.988281 C 31.179688 19.277344 31.054688 19.554688 30.832031 19.742188 L 24.203125 25.425781 L 24.203125 32.941406 C 24.203125 33.316406 23.992188 33.664062 23.652344 33.832031 L 19.667969 35.824219 C 19.359375 35.976562 18.996094 35.960938 18.703125 35.785156 C 18.410156 35.605469 18.230469 35.292969 18.226562 34.949219 L 18.078125 25.425781 L 11.589844 19.734375 C 11.371094 19.546875 11.25 19.273438 11.25 18.988281 Z M 13.242188 16.992188 L 13.242188 18.535156 L 19.722656 24.21875 C 19.933594 24.402344 20.058594 24.667969 20.0625 24.949219 L 20.191406 33.332031 L 22.210938 32.324219 L 22.210938 24.964844 C 22.210938 24.675781 22.339844 24.398438 22.558594 24.210938 L 29.1875 18.527344 L 29.1875 16.992188 Z M 13.242188 16.992188 " fill-opacity="1" fill-rule="evenodd"/></g><g clip-path="url(#c87c3a48d5)"><g clip-path="url(#8a99e6fc96)"><path fill="#2a303c" d="M 15 42.246094 L 278.871094 42.246094 L 278.871094 130.691406 L 15 130.691406 Z M 15 42.246094 " fill-opacity="1" fill-rule="nonzero"/></g></g><g fill="#9ec8d5" fill-opacity="1"><g transform="translate(34.787578, 32.181206)"><g><path d="M 8.828125 0 L 6.4375 -3.359375 C 6.164062 -3.328125 5.890625 -3.3125 5.609375 -3.3125 L 2.796875 -3.3125 L 2.796875 0 L 1.703125 0 L 1.703125 -10.4375 L 5.609375 -10.4375 C 6.941406 -10.4375 7.984375 -10.117188 8.734375 -9.484375 C 9.492188 -8.847656 9.875 -7.972656 9.875 -6.859375 C 9.875 -6.046875 9.664062 -5.359375 9.25 -4.796875 C 8.832031 -4.234375 8.242188 -3.828125 7.484375 -3.578125 L 10.03125 0 Z M 5.578125 -4.25 C 6.609375 -4.25 7.394531 -4.476562 7.9375 -4.9375 C 8.488281 -5.394531 8.765625 -6.035156 8.765625 -6.859375 C 8.765625 -7.703125 8.488281 -8.347656 7.9375 -8.796875 C 7.394531 -9.253906 6.609375 -9.484375 5.578125 -9.484375 L 2.796875 -9.484375 L 2.796875 -4.25 Z M 5.578125 -4.25 "/></g></g></g><g fill="#9ec8d5" fill-opacity="1"><g transform="translate(45.56469, 32.181206)"><g><path d="M 8.296875 -3.59375 L 1.75 -3.59375 C 1.800781 -2.78125 2.109375 -2.117188 2.671875 -1.609375 C 3.242188 -1.109375 3.960938 -0.859375 4.828125 -0.859375 C 5.316406 -0.859375 5.765625 -0.945312 6.171875 -1.125 C 6.578125 -1.300781 6.929688 -1.554688 7.234375 -1.890625 L 7.828125 -1.203125 C 7.472656 -0.785156 7.035156 -0.46875 6.515625 -0.25 C 5.992188 -0.03125 5.421875 0.078125 4.796875 0.078125 C 3.992188 0.078125 3.28125 -0.09375 2.65625 -0.4375 C 2.039062 -0.78125 1.554688 -1.253906 1.203125 -1.859375 C 0.859375 -2.460938 0.6875 -3.148438 0.6875 -3.921875 C 0.6875 -4.679688 0.851562 -5.363281 1.1875 -5.96875 C 1.519531 -6.582031 1.972656 -7.054688 2.546875 -7.390625 C 3.128906 -7.734375 3.785156 -7.90625 4.515625 -7.90625 C 5.242188 -7.90625 5.894531 -7.734375 6.46875 -7.390625 C 7.039062 -7.054688 7.488281 -6.585938 7.8125 -5.984375 C 8.144531 -5.378906 8.3125 -4.691406 8.3125 -3.921875 Z M 4.515625 -6.984375 C 3.765625 -6.984375 3.128906 -6.742188 2.609375 -6.265625 C 2.097656 -5.785156 1.8125 -5.15625 1.75 -4.375 L 7.296875 -4.375 C 7.234375 -5.15625 6.945312 -5.785156 6.4375 -6.265625 C 5.925781 -6.742188 5.285156 -6.984375 4.515625 -6.984375 Z M 4.515625 -6.984375 "/></g></g></g><g fill="#9ec8d5" fill-opacity="1"><g transform="translate(54.567978, 32.181206)"><g><path d="M 4.71875 0.078125 C 3.945312 0.078125 3.253906 -0.0859375 2.640625 -0.421875 C 2.035156 -0.765625 1.554688 -1.238281 1.203125 -1.84375 C 0.859375 -2.457031 0.6875 -3.148438 0.6875 -3.921875 C 0.6875 -4.679688 0.859375 -5.363281 1.203125 -5.96875 C 1.554688 -6.582031 2.035156 -7.054688 2.640625 -7.390625 C 3.253906 -7.734375 3.945312 -7.90625 4.71875 -7.90625 C 5.394531 -7.90625 6 -7.769531 6.53125 -7.5 C 7.0625 -7.238281 7.484375 -6.851562 7.796875 -6.34375 L 7 -5.8125 C 6.75 -6.195312 6.421875 -6.484375 6.015625 -6.671875 C 5.617188 -6.867188 5.1875 -6.96875 4.71875 -6.96875 C 4.15625 -6.96875 3.644531 -6.84375 3.1875 -6.59375 C 2.738281 -6.34375 2.390625 -5.984375 2.140625 -5.515625 C 1.890625 -5.046875 1.765625 -4.515625 1.765625 -3.921875 C 1.765625 -3.316406 1.890625 -2.78125 2.140625 -2.3125 C 2.390625 -1.851562 2.738281 -1.492188 3.1875 -1.234375 C 3.644531 -0.984375 4.15625 -0.859375 4.71875 -0.859375 C 5.1875 -0.859375 5.617188 -0.953125 6.015625 -1.140625 C 6.421875 -1.335938 6.75 -1.628906 7 -2.015625 L 7.796875 -1.46875 C 7.484375 -0.96875 7.054688 -0.582031 6.515625 -0.3125 C 5.984375 -0.0507812 5.382812 0.078125 4.71875 0.078125 Z M 4.71875 0.078125 "/></g></g></g><g fill="#9ec8d5" fill-opacity="1"><g transform="translate(62.960111, 32.181206)"><g><path d="M 8.296875 -3.59375 L 1.75 -3.59375 C 1.800781 -2.78125 2.109375 -2.117188 2.671875 -1.609375 C 3.242188 -1.109375 3.960938 -0.859375 4.828125 -0.859375 C 5.316406 -0.859375 5.765625 -0.945312 6.171875 -1.125 C 6.578125 -1.300781 6.929688 -1.554688 7.234375 -1.890625 L 7.828125 -1.203125 C 7.472656 -0.785156 7.035156 -0.46875 6.515625 -0.25 C 5.992188 -0.03125 5.421875 0.078125 4.796875 0.078125 C 3.992188 0.078125 3.28125 -0.09375 2.65625 -0.4375 C 2.039062 -0.78125 1.554688 -1.253906 1.203125 -1.859375 C 0.859375 -2.460938 0.6875 -3.148438 0.6875 -3.921875 C 0.6875 -4.679688 0.851562 -5.363281 1.1875 -5.96875 C 1.519531 -6.582031 1.972656 -7.054688 2.546875 -7.390625 C 3.128906 -7.734375 3.785156 -7.90625 4.515625 -7.90625 C 5.242188 -7.90625 5.894531 -7.734375 6.46875 -7.390625 C 7.039062 -7.054688 7.488281 -6.585938 7.8125 -5.984375 C 8.144531 -5.378906 8.3125 -4.691406 8.3125 -3.921875 Z M 4.515625 -6.984375 C 3.765625 -6.984375 3.128906 -6.742188 2.609375 -6.265625 C 2.097656 -5.785156 1.8125 -5.15625 1.75 -4.375 L 7.296875 -4.375 C 7.234375 -5.15625 6.945312 -5.785156 6.4375 -6.265625 C 5.925781 -6.742188 5.285156 -6.984375 4.515625 -6.984375 Z M 4.515625 -6.984375 "/></g></g></g><g fill="#9ec8d5" fill-opacity="1"><g transform="translate(71.963399, 32.181206)"><g><path d="M 5.46875 -7.90625 C 6.457031 -7.90625 7.238281 -7.617188 7.8125 -7.046875 C 8.394531 -6.472656 8.6875 -5.640625 8.6875 -4.546875 L 8.6875 0 L 7.625 0 L 7.625 -4.4375 C 7.625 -5.257812 7.421875 -5.882812 7.015625 -6.3125 C 6.609375 -6.738281 6.03125 -6.953125 5.28125 -6.953125 C 4.4375 -6.953125 3.765625 -6.695312 3.265625 -6.1875 C 2.773438 -5.6875 2.53125 -4.992188 2.53125 -4.109375 L 2.53125 0 L 1.46875 0 L 1.46875 -7.84375 L 2.484375 -7.84375 L 2.484375 -6.390625 C 2.773438 -6.867188 3.175781 -7.238281 3.6875 -7.5 C 4.195312 -7.769531 4.789062 -7.90625 5.46875 -7.90625 Z M 5.46875 -7.90625 "/></g></g></g><g fill="#9ec8d5" fill-opacity="1"><g transform="translate(82.054829, 32.181206)"><g><path d="M 5.609375 -0.484375 C 5.410156 -0.296875 5.160156 -0.15625 4.859375 -0.0625 C 4.566406 0.03125 4.265625 0.078125 3.953125 0.078125 C 3.210938 0.078125 2.644531 -0.117188 2.25 -0.515625 C 1.851562 -0.921875 1.65625 -1.484375 1.65625 -2.203125 L 1.65625 -6.953125 L 0.25 -6.953125 L 0.25 -7.84375 L 1.65625 -7.84375 L 1.65625 -9.5625 L 2.71875 -9.5625 L 2.71875 -7.84375 L 5.09375 -7.84375 L 5.09375 -6.953125 L 2.71875 -6.953125 L 2.71875 -2.265625 C 2.71875 -1.796875 2.832031 -1.4375 3.0625 -1.1875 C 3.289062 -0.945312 3.625 -0.828125 4.0625 -0.828125 C 4.28125 -0.828125 4.492188 -0.863281 4.703125 -0.9375 C 4.910156 -1.007812 5.085938 -1.109375 5.234375 -1.234375 Z M 5.609375 -0.484375 "/></g></g></g><g fill="#9ec8d5" fill-opacity="1"><g transform="translate(31.190424, 71.354903)"><g><path d="M 8.5 0 L 6.203125 -3.234375 C 5.941406 -3.203125 5.675781 -3.1875 5.40625 -3.1875 L 2.703125 -3.1875 L 2.703125 0 L 1.640625 0 L 1.640625 -10.046875 L 5.40625 -10.046875 C 6.6875 -10.046875 7.6875 -9.738281 8.40625 -9.125 C 9.132812 -8.519531 9.5 -7.679688 9.5 -6.609375 C 9.5 -5.816406 9.300781 -5.148438 8.90625 -4.609375 C 8.507812 -4.078125 7.941406 -3.691406 7.203125 -3.453125 L 9.65625 0 Z M 5.375 -4.09375 C 6.363281 -4.09375 7.117188 -4.3125 7.640625 -4.75 C 8.171875 -5.1875 8.4375 -5.804688 8.4375 -6.609375 C 8.4375 -7.421875 8.171875 -8.039062 7.640625 -8.46875 C 7.117188 -8.90625 6.363281 -9.125 5.375 -9.125 L 2.703125 -9.125 L 2.703125 -4.09375 Z M 5.375 -4.09375 "/></g></g></g><g fill="#9ec8d5" fill-opacity="1"><g transform="translate(41.576289, 71.354903)"><g><path d="M 8 -3.453125 L 1.6875 -3.453125 C 1.738281 -2.671875 2.035156 -2.035156 2.578125 -1.546875 C 3.128906 -1.066406 3.820312 -0.828125 4.65625 -0.828125 C 5.125 -0.828125 5.550781 -0.910156 5.9375 -1.078125 C 6.332031 -1.242188 6.675781 -1.492188 6.96875 -1.828125 L 7.53125 -1.15625 C 7.195312 -0.757812 6.78125 -0.453125 6.28125 -0.234375 C 5.78125 -0.0234375 5.226562 0.078125 4.625 0.078125 C 3.84375 0.078125 3.15625 -0.0859375 2.5625 -0.421875 C 1.96875 -0.753906 1.5 -1.210938 1.15625 -1.796875 C 0.820312 -2.378906 0.65625 -3.039062 0.65625 -3.78125 C 0.65625 -4.507812 0.816406 -5.164062 1.140625 -5.75 C 1.460938 -6.34375 1.898438 -6.800781 2.453125 -7.125 C 3.015625 -7.445312 3.644531 -7.609375 4.34375 -7.609375 C 5.050781 -7.609375 5.679688 -7.445312 6.234375 -7.125 C 6.785156 -6.800781 7.21875 -6.347656 7.53125 -5.765625 C 7.851562 -5.179688 8.015625 -4.519531 8.015625 -3.78125 Z M 4.34375 -6.734375 C 3.625 -6.734375 3.015625 -6.5 2.515625 -6.03125 C 2.023438 -5.570312 1.75 -4.96875 1.6875 -4.21875 L 7.03125 -4.21875 C 6.96875 -4.96875 6.6875 -5.570312 6.1875 -6.03125 C 5.695312 -6.5 5.082031 -6.734375 4.34375 -6.734375 Z M 4.34375 -6.734375 "/></g></g></g><g fill="#9ec8d5" fill-opacity="1"><g transform="translate(50.252727, 71.354903)"><g><path d="M 4.546875 0.078125 C 3.804688 0.078125 3.140625 -0.0820312 2.546875 -0.40625 C 1.960938 -0.738281 1.5 -1.195312 1.15625 -1.78125 C 0.820312 -2.375 0.65625 -3.039062 0.65625 -3.78125 C 0.65625 -4.507812 0.820312 -5.164062 1.15625 -5.75 C 1.5 -6.34375 1.960938 -6.800781 2.546875 -7.125 C 3.140625 -7.445312 3.804688 -7.609375 4.546875 -7.609375 C 5.203125 -7.609375 5.785156 -7.476562 6.296875 -7.21875 C 6.804688 -6.96875 7.210938 -6.597656 7.515625 -6.109375 L 6.75 -5.59375 C 6.5 -5.96875 6.179688 -6.25 5.796875 -6.4375 C 5.421875 -6.625 5.003906 -6.71875 4.546875 -6.71875 C 4.003906 -6.71875 3.515625 -6.59375 3.078125 -6.34375 C 2.640625 -6.101562 2.296875 -5.757812 2.046875 -5.3125 C 1.804688 -4.863281 1.6875 -4.351562 1.6875 -3.78125 C 1.6875 -3.195312 1.804688 -2.679688 2.046875 -2.234375 C 2.296875 -1.785156 2.640625 -1.4375 3.078125 -1.1875 C 3.515625 -0.945312 4.003906 -0.828125 4.546875 -0.828125 C 5.003906 -0.828125 5.421875 -0.914062 5.796875 -1.09375 C 6.179688 -1.28125 6.5 -1.5625 6.75 -1.9375 L 7.515625 -1.421875 C 7.210938 -0.929688 6.800781 -0.554688 6.28125 -0.296875 C 5.769531 -0.046875 5.191406 0.078125 4.546875 0.078125 Z M 4.546875 0.078125 "/></g></g></g><g fill="#9ec8d5" fill-opacity="1"><g transform="translate(58.340196, 71.354903)"><g><path d="M 8 -3.453125 L 1.6875 -3.453125 C 1.738281 -2.671875 2.035156 -2.035156 2.578125 -1.546875 C 3.128906 -1.066406 3.820312 -0.828125 4.65625 -0.828125 C 5.125 -0.828125 5.550781 -0.910156 5.9375 -1.078125 C 6.332031 -1.242188 6.675781 -1.492188 6.96875 -1.828125 L 7.53125 -1.15625 C 7.195312 -0.757812 6.78125 -0.453125 6.28125 -0.234375 C 5.78125 -0.0234375 5.226562 0.078125 4.625 0.078125 C 3.84375 0.078125 3.15625 -0.0859375 2.5625 -0.421875 C 1.96875 -0.753906 1.5 -1.210938 1.15625 -1.796875 C 0.820312 -2.378906 0.65625 -3.039062 0.65625 -3.78125 C 0.65625 -4.507812 0.816406 -5.164062 1.140625 -5.75 C 1.460938 -6.34375 1.898438 -6.800781 2.453125 -7.125 C 3.015625 -7.445312 3.644531 -7.609375 4.34375 -7.609375 C 5.050781 -7.609375 5.679688 -7.445312 6.234375 -7.125 C 6.785156 -6.800781 7.21875 -6.347656 7.53125 -5.765625 C 7.851562 -5.179688 8.015625 -4.519531 8.015625 -3.78125 Z M 4.34375 -6.734375 C 3.625 -6.734375 3.015625 -6.5 2.515625 -6.03125 C 2.023438 -5.570312 1.75 -4.96875 1.6875 -4.21875 L 7.03125 -4.21875 C 6.96875 -4.96875 6.6875 -5.570312 6.1875 -6.03125 C 5.695312 -6.5 5.082031 -6.734375 4.34375 -6.734375 Z M 4.34375 -6.734375 "/></g></g></g><g fill="#9ec8d5" fill-opacity="1"><g transform="translate(67.016634, 71.354903)"><g><path d="M 5.265625 -7.609375 C 6.210938 -7.609375 6.96875 -7.332031 7.53125 -6.78125 C 8.09375 -6.226562 8.375 -5.425781 8.375 -4.375 L 8.375 0 L 7.359375 0 L 7.359375 -4.28125 C 7.359375 -5.0625 7.160156 -5.65625 6.765625 -6.0625 C 6.367188 -6.476562 5.804688 -6.6875 5.078125 -6.6875 C 4.265625 -6.6875 3.617188 -6.441406 3.140625 -5.953125 C 2.671875 -5.472656 2.4375 -4.8125 2.4375 -3.96875 L 2.4375 0 L 1.421875 0 L 1.421875 -7.546875 L 2.390625 -7.546875 L 2.390625 -6.15625 C 2.671875 -6.613281 3.054688 -6.96875 3.546875 -7.21875 C 4.046875 -7.476562 4.617188 -7.609375 5.265625 -7.609375 Z M 5.265625 -7.609375 "/></g></g></g><g fill="#9ec8d5" fill-opacity="1"><g transform="translate(76.741709, 71.354903)"><g><path d="M 5.40625 -0.453125 C 5.207031 -0.285156 4.96875 -0.15625 4.6875 -0.0625 C 4.40625 0.03125 4.113281 0.078125 3.8125 0.078125 C 3.101562 0.078125 2.554688 -0.113281 2.171875 -0.5 C 1.785156 -0.882812 1.59375 -1.425781 1.59375 -2.125 L 1.59375 -6.6875 L 0.25 -6.6875 L 0.25 -7.546875 L 1.59375 -7.546875 L 1.59375 -9.203125 L 2.609375 -9.203125 L 2.609375 -7.546875 L 4.90625 -7.546875 L 4.90625 -6.6875 L 2.609375 -6.6875 L 2.609375 -2.1875 C 2.609375 -1.726562 2.71875 -1.378906 2.9375 -1.140625 C 3.164062 -0.910156 3.492188 -0.796875 3.921875 -0.796875 C 4.128906 -0.796875 4.332031 -0.828125 4.53125 -0.890625 C 4.726562 -0.960938 4.898438 -1.0625 5.046875 -1.1875 Z M 5.40625 -0.453125 "/></g></g></g><g fill="#9ec8d5" fill-opacity="1"><g transform="translate(33.031363, 104.222394)"><g><path d="M 5.40625 -10.046875 C 6.6875 -10.046875 7.6875 -9.738281 8.40625 -9.125 C 9.132812 -8.519531 9.5 -7.679688 9.5 -6.609375 C 9.5 -5.535156 9.132812 -4.691406 8.40625 -4.078125 C 7.6875 -3.472656 6.6875 -3.171875 5.40625 -3.171875 L 2.703125 -3.171875 L 2.703125 0 L 1.640625 0 L 1.640625 -10.046875 Z M 5.375 -4.109375 C 6.363281 -4.109375 7.117188 -4.320312 7.640625 -4.75 C 8.171875 -5.1875 8.4375 -5.804688 8.4375 -6.609375 C 8.4375 -7.421875 8.171875 -8.039062 7.640625 -8.46875 C 7.117188 -8.90625 6.363281 -9.125 5.375 -9.125 L 2.703125 -9.125 L 2.703125 -4.109375 Z M 5.375 -4.109375 "/></g></g></g><g fill="#9ec8d5" fill-opacity="1"><g transform="translate(43.345401, 104.222394)"><g><path d="M 4.515625 0.078125 C 3.785156 0.078125 3.128906 -0.0859375 2.546875 -0.421875 C 1.960938 -0.753906 1.5 -1.210938 1.15625 -1.796875 C 0.820312 -2.378906 0.65625 -3.039062 0.65625 -3.78125 C 0.65625 -4.507812 0.820312 -5.164062 1.15625 -5.75 C 1.5 -6.34375 1.960938 -6.800781 2.546875 -7.125 C 3.128906 -7.445312 3.785156 -7.609375 4.515625 -7.609375 C 5.234375 -7.609375 5.882812 -7.445312 6.46875 -7.125 C 7.0625 -6.800781 7.519531 -6.34375 7.84375 -5.75 C 8.175781 -5.164062 8.34375 -4.507812 8.34375 -3.78125 C 8.34375 -3.039062 8.175781 -2.378906 7.84375 -1.796875 C 7.519531 -1.210938 7.0625 -0.753906 6.46875 -0.421875 C 5.882812 -0.0859375 5.234375 0.078125 4.515625 0.078125 Z M 4.515625 -0.828125 C 5.046875 -0.828125 5.523438 -0.945312 5.953125 -1.1875 C 6.378906 -1.4375 6.710938 -1.785156 6.953125 -2.234375 C 7.191406 -2.691406 7.3125 -3.207031 7.3125 -3.78125 C 7.3125 -4.351562 7.191406 -4.863281 6.953125 -5.3125 C 6.710938 -5.757812 6.378906 -6.101562 5.953125 -6.34375 C 5.523438 -6.59375 5.046875 -6.71875 4.515625 -6.71875 C 3.972656 -6.71875 3.488281 -6.59375 3.0625 -6.34375 C 2.632812 -6.101562 2.296875 -5.757812 2.046875 -5.3125 C 1.804688 -4.863281 1.6875 -4.351562 1.6875 -3.78125 C 1.6875 -3.207031 1.804688 -2.691406 2.046875 -2.234375 C 2.296875 -1.785156 2.632812 -1.4375 3.0625 -1.1875 C 3.488281 -0.945312 3.972656 -0.828125 4.515625 -0.828125 Z M 4.515625 -0.828125 "/></g></g></g><g fill="#9ec8d5" fill-opacity="1"><g transform="translate(52.352227, 104.222394)"><g><path d="M 5.3125 -7.609375 C 6.019531 -7.609375 6.660156 -7.445312 7.234375 -7.125 C 7.804688 -6.800781 8.253906 -6.347656 8.578125 -5.765625 C 8.910156 -5.179688 9.078125 -4.519531 9.078125 -3.78125 C 9.078125 -3.019531 8.910156 -2.347656 8.578125 -1.765625 C 8.253906 -1.179688 7.804688 -0.726562 7.234375 -0.40625 C 6.671875 -0.0820312 6.03125 0.078125 5.3125 0.078125 C 4.695312 0.078125 4.144531 -0.046875 3.65625 -0.296875 C 3.164062 -0.554688 2.757812 -0.929688 2.4375 -1.421875 L 2.4375 2.78125 L 1.421875 2.78125 L 1.421875 -7.546875 L 2.390625 -7.546875 L 2.390625 -6.0625 C 2.703125 -6.5625 3.109375 -6.941406 3.609375 -7.203125 C 4.109375 -7.472656 4.675781 -7.609375 5.3125 -7.609375 Z M 5.234375 -0.828125 C 5.765625 -0.828125 6.242188 -0.945312 6.671875 -1.1875 C 7.109375 -1.4375 7.445312 -1.785156 7.6875 -2.234375 C 7.9375 -2.691406 8.0625 -3.207031 8.0625 -3.78125 C 8.0625 -4.351562 7.9375 -4.859375 7.6875 -5.296875 C 7.445312 -5.742188 7.109375 -6.09375 6.671875 -6.34375 C 6.242188 -6.59375 5.765625 -6.71875 5.234375 -6.71875 C 4.703125 -6.71875 4.222656 -6.59375 3.796875 -6.34375 C 3.367188 -6.09375 3.03125 -5.742188 2.78125 -5.296875 C 2.539062 -4.859375 2.421875 -4.351562 2.421875 -3.78125 C 2.421875 -3.207031 2.539062 -2.691406 2.78125 -2.234375 C 3.03125 -1.785156 3.367188 -1.4375 3.796875 -1.1875 C 4.222656 -0.945312 4.703125 -0.828125 5.234375 -0.828125 Z M 5.234375 -0.828125 "/></g></g></g><g fill="#9ec8d5" fill-opacity="1"><g transform="translate(62.091669, 104.222394)"><g><path d="M 8.234375 -7.546875 L 8.234375 0 L 7.25 0 L 7.25 -1.375 C 6.976562 -0.914062 6.609375 -0.554688 6.140625 -0.296875 C 5.671875 -0.046875 5.132812 0.078125 4.53125 0.078125 C 3.550781 0.078125 2.773438 -0.195312 2.203125 -0.75 C 1.628906 -1.300781 1.34375 -2.109375 1.34375 -3.171875 L 1.34375 -7.546875 L 2.375 -7.546875 L 2.375 -3.28125 C 2.375 -2.476562 2.566406 -1.867188 2.953125 -1.453125 C 3.347656 -1.046875 3.910156 -0.84375 4.640625 -0.84375 C 5.429688 -0.84375 6.054688 -1.082031 6.515625 -1.5625 C 6.972656 -2.050781 7.203125 -2.726562 7.203125 -3.59375 L 7.203125 -7.546875 Z M 8.234375 -7.546875 "/></g></g></g><g fill="#9ec8d5" fill-opacity="1"><g transform="translate(71.759285, 104.222394)"><g><path d="M 1.421875 -10.65625 L 2.4375 -10.65625 L 2.4375 0 L 1.421875 0 Z M 1.421875 -10.65625 "/></g></g></g><g fill="#9ec8d5" fill-opacity="1"><g transform="translate(75.623462, 104.222394)"><g><path d="M 4.0625 -7.609375 C 5.050781 -7.609375 5.804688 -7.359375 6.328125 -6.859375 C 6.859375 -6.367188 7.125 -5.644531 7.125 -4.6875 L 7.125 0 L 6.140625 0 L 6.140625 -1.171875 C 5.910156 -0.785156 5.570312 -0.476562 5.125 -0.25 C 4.6875 -0.03125 4.160156 0.078125 3.546875 0.078125 C 2.703125 0.078125 2.03125 -0.125 1.53125 -0.53125 C 1.039062 -0.9375 0.796875 -1.46875 0.796875 -2.125 C 0.796875 -2.769531 1.023438 -3.285156 1.484375 -3.671875 C 1.953125 -4.066406 2.691406 -4.265625 3.703125 -4.265625 L 6.109375 -4.265625 L 6.109375 -4.71875 C 6.109375 -5.375 5.925781 -5.867188 5.5625 -6.203125 C 5.195312 -6.546875 4.664062 -6.71875 3.96875 -6.71875 C 3.488281 -6.71875 3.023438 -6.640625 2.578125 -6.484375 C 2.140625 -6.328125 1.765625 -6.109375 1.453125 -5.828125 L 0.984375 -6.59375 C 1.367188 -6.914062 1.828125 -7.164062 2.359375 -7.34375 C 2.898438 -7.519531 3.46875 -7.609375 4.0625 -7.609375 Z M 3.703125 -0.734375 C 4.273438 -0.734375 4.765625 -0.863281 5.171875 -1.125 C 5.585938 -1.382812 5.898438 -1.765625 6.109375 -2.265625 L 6.109375 -3.5 L 3.734375 -3.5 C 2.441406 -3.5 1.796875 -3.050781 1.796875 -2.15625 C 1.796875 -1.71875 1.960938 -1.367188 2.296875 -1.109375 C 2.628906 -0.859375 3.097656 -0.734375 3.703125 -0.734375 Z M 3.703125 -0.734375 "/></g></g></g><g fill="#9ec8d5" fill-opacity="1"><g transform="translate(84.098785, 104.222394)"><g><path d="M 2.390625 -6.078125 C 2.628906 -6.578125 2.984375 -6.957031 3.453125 -7.21875 C 3.929688 -7.476562 4.523438 -7.609375 5.234375 -7.609375 L 5.234375 -6.625 L 4.984375 -6.640625 C 4.191406 -6.640625 3.566406 -6.394531 3.109375 -5.90625 C 2.660156 -5.414062 2.4375 -4.726562 2.4375 -3.84375 L 2.4375 0 L 1.421875 0 L 1.421875 -7.546875 L 2.390625 -7.546875 Z M 2.390625 -6.078125 "/></g></g></g><path stroke-linecap="butt" transform="matrix(0.499022, 0.55989, -0.55989, 0.499022, 92.989831, 25.466283)" fill="none" stroke-linejoin="miter" d="M -0.000683546 0.999842 L 10.018417 0.999395 " stroke="#9ec8d5" stroke-width="2" stroke-opacity="1" stroke-miterlimit="4"/><path stroke-linecap="butt" transform="matrix(0.465997, -0.587662, 0.587662, 0.465997, 96.521363, 31.286115)" fill="none" stroke-linejoin="miter" d="M -0.00158546 1.001852 L 9.852925 0.997891 " stroke="#9ec8d5" stroke-width="2" stroke-opacity="1" stroke-miterlimit="4"/></svg>